<?xml version="1.0" encoding="UTF-8" standalone="no"?>
<svg
   xmlns:dc="http://purl.org/dc/elements/1.1/"
   xmlns:cc="http://creativecommons.org/ns#"
   xmlns:rdf="http://www.w3.org/1999/02/22-rdf-syntax-ns#"
   xmlns:svg="http://www.w3.org/2000/svg"
   xmlns="http://www.w3.org/2000/svg"
   viewBox="0 0 793.70667 284"
   height="284"
   width="793.70667"
   xml:space="preserve"
   id="svg2"
   version="1.1"><metadata
     id="metadata8"><rdf:RDF><cc:Work
         rdf:about=""><dc:format>image/svg+xml</dc:format><dc:type
           rdf:resource="http://purl.org/dc/dcmitype/StillImage" /></cc:Work></rdf:RDF></metadata><defs
     id="defs6"><clipPath
       id="clipPath18"
       clipPathUnits="userSpaceOnUse"><path
         id="path16"
         d="M 0,213 H 595.28 V 0 H 0 Z" /></clipPath></defs><g
     transform="matrix(1.3333333,0,0,-1.3333333,0,284)"
     id="g10"><g
       id="g12"><g
         clip-path="url(#clipPath18)"
         id="g14"><g
           transform="translate(107.0522,176.1853)"
           id="g20"><path
             id="path22"
             style="fill:#ffffff;fill-opacity:1;fill-rule:nonzero;stroke:none"
             d="m 0,0 c -38.083,0 -69.066,-30.983 -69.066,-69.068 0,-38.082 30.983,-69.065 69.066,-69.065 38.085,0 69.068,30.983 69.068,69.065 C 69.068,-30.983 38.085,0 0,0 m 0,-154.107 c -46.89,0 -85.038,38.15 -85.038,85.039 0,46.893 38.148,85.04 85.038,85.04 46.892,0 85.041,-38.147 85.041,-85.04 0,-46.889 -38.149,-85.039 -85.041,-85.039" /></g><path
           id="path24"
           style="fill:#ffffff;fill-opacity:1;fill-rule:nonzero;stroke:none"
           d="M 132.974,65.318 H 88.656 v 18.206 h 44.318 z" /><path
           id="path26"
           style="fill:#ffffff;fill-opacity:1;fill-rule:nonzero;stroke:none"
           d="M 111.118,98.012 H 88.656 v 18.212 h 22.462 z" /><path
           id="path28"
           style="fill:#ffffff;fill-opacity:1;fill-rule:nonzero;stroke:none"
           d="M 111.118,130.701 H 88.656 v 18.219 h 22.462 z" /><g
           transform="translate(225.4512,150.1536)"
           id="g30"><path
             id="path32"
             style="fill:#ffffff;fill-opacity:1;fill-rule:nonzero;stroke:none"
             d="M 0,0 H 15.561 V -68.89 H 41.256 V -84.038 H 0 Z" /></g><g
           transform="translate(336.0215,66.137)"
           id="g34"><path
             id="path36"
             style="fill:#ffffff;fill-opacity:1;fill-rule:nonzero;stroke:none"
             d="m 0,0 h -13.843 v 8.531 h -0.223 c -1.922,-2.739 -4.417,-4.969 -7.52,-6.716 -3.102,-1.732 -6.34,-2.92 -9.665,-3.53 -0.683,-0.075 -1.37,-0.15 -2.103,-0.21 -0.719,-0.098 -1.399,-0.13 -2.099,-0.13 -4.853,0 -9.247,0.945 -13.198,2.779 -3.927,1.87 -7.279,4.412 -9.997,7.677 -2.5,3.059 -4.443,6.53 -5.821,10.483 -1.364,3.916 -2.033,8.108 -2.033,12.497 0,4.399 0.627,8.44 1.883,12.163 1.255,3.706 3.315,7.19 6.199,10.448 3.18,3.722 6.729,6.466 10.63,8.246 3.896,1.777 8.155,2.659 12.796,2.659 4.298,0 8.295,-0.921 11.922,-2.755 3.641,-1.875 6.718,-4.597 9.229,-8.15 V 62.98 L 0,62.98 Z m -14.308,31.591 c 0,5.237 -1.712,9.649 -5.073,13.247 -3.359,3.6 -7.751,5.354 -13.126,5.276 -5.527,0.078 -10.054,-1.754 -13.586,-5.453 -3.52,-3.729 -5.266,-8.315 -5.266,-13.85 0,-5.199 1.816,-9.531 5.499,-13.051 3.686,-3.52 8.047,-5.249 13.118,-5.177 5.46,-0.072 9.89,1.728 13.311,5.361 3.411,3.637 5.123,8.129 5.123,13.531 z" /></g><g
           transform="translate(347.3652,150.1536)"
           id="g38"><path
             id="path40"
             style="fill:#ffffff;fill-opacity:1;fill-rule:nonzero;stroke:none"
             d="m 0,0 h 15.106 v -50.719 l 20.231,29.675 H 53.195 L 30.455,-51.862 56.946,-84.038 H 36.717 l -21.611,29.47 v -29.47 l -15.106,0 z" /></g><g
           transform="translate(464.8975,66.137)"
           id="g42"><path
             id="path44"
             style="fill:#ffffff;fill-opacity:1;fill-rule:nonzero;stroke:none"
             d="m 0,0 h -13.877 v 8.531 h -0.224 c -1.893,-2.739 -4.378,-4.969 -7.493,-6.716 -3.113,-1.732 -6.327,-2.92 -9.668,-3.53 -0.679,-0.075 -1.377,-0.15 -2.103,-0.21 -0.724,-0.098 -1.435,-0.13 -2.099,-0.13 -4.863,0 -9.258,0.945 -13.197,2.779 -3.928,1.87 -7.294,4.412 -10,7.677 -2.503,3.059 -4.448,6.53 -5.8,10.483 -1.367,3.916 -2.052,8.108 -2.052,12.497 0,4.399 0.623,8.44 1.873,12.163 1.266,3.706 3.326,7.19 6.202,10.448 3.199,3.722 6.726,6.466 10.623,8.246 3.919,1.777 8.175,2.659 12.794,2.659 4.312,0 8.317,-0.921 11.933,-2.755 3.642,-1.875 6.729,-4.597 9.211,-8.15 V 62.98 L 0,62.98 Z m -14.315,31.591 c 0,5.237 -1.694,9.649 -5.081,13.247 -3.381,3.6 -7.754,5.354 -13.126,5.276 -5.531,0.078 -10.054,-1.754 -13.577,-5.453 -3.53,-3.729 -5.301,-8.315 -5.301,-13.85 0,-5.199 1.846,-9.531 5.519,-13.051 3.673,-3.52 8.065,-5.249 13.133,-5.177 5.437,-0.072 9.901,1.728 13.302,5.361 3.414,3.637 5.131,8.129 5.131,13.531 z" /></g><g
           transform="translate(531.8643,129.1091)"
           id="g46"><path
             id="path48"
             style="fill:#ffffff;fill-opacity:1;fill-rule:nonzero;stroke:none"
             d="m 0,0 v -62.983 h -13.88 v 6.724 h -0.223 c -1.582,-3.128 -3.797,-5.347 -6.598,-6.724 -2.802,-1.356 -5.941,-2.033 -9.443,-2.033 -3.704,0 -7.298,0.677 -10.753,2.096 -3.44,1.416 -6.491,3.582 -9.141,6.542 -2.794,3.034 -4.522,6.23 -5.131,9.589 -0.602,3.379 -0.895,7.089 -0.895,11.089 V 0 h 15.104 v -30.922 c 0,-0.994 0.021,-2.002 0.052,-3.017 0.044,-1.014 0.095,-2.083 0.192,-3.123 0.155,-1.23 0.361,-2.425 0.63,-3.593 0.246,-1.17 0.623,-2.241 1.076,-3.237 1.054,-2.043 2.54,-3.637 4.415,-4.752 1.931,-1.151 4.021,-1.73 6.392,-1.73 5.087,0 8.451,1.694 10.132,5.066 1.652,3.362 2.617,7.048 2.83,11.071 0.077,0.563 0.122,1.081 0.122,1.606 V -31.037 0 Z" /></g><g
           transform="translate(549.0547,115.6804)"
           id="g50"><path
             id="path52"
             style="fill:#ffffff;fill-opacity:1;fill-rule:nonzero;stroke:none"
             d="M 0,0 H -7.388 V 13.437 H 0 V 34.473 H 15.112 V 13.437 h 9.099 V 0 H 15.112 V -49.543 H 0 Z" /></g></g></g></g></svg>